solid OBJECT
  facet normal 0 1 0
    outer loop
      vertex 12.458034515380859 47.169662475585938 -0.94811123609542847
      vertex -73.620399475097656 47.169662475585938 -20.948110580444336
      vertex -36.289524078369141 47.169662475585938 -0.94811123609542847
    endloop
  endfacet
  facet normal 0 1 0
    outer loop
      vertex -35.99224853515625 47.169662475585938 -40.568401336669922
      vertex -73.620399475097656 47.169662475585938 -20.948110580444336
      vertex 12.755309104919434 47.169662475585938 -40.568401336669922
    endloop
  endfacet
  facet normal 0 1 -0
    outer loop
      vertex 60.997245788574219 47.169662475585938 -2.0466020107269287
      vertex 61.012088775634766 47.169662475585938 -39.485721588134766
      vertex 12.755309104919434 47.169662475585938 -40.568401336669922
    endloop
  endfacet
  facet normal 0 1 0
    outer loop
      vertex 12.755309104919434 47.169662475585938 -40.568401336669922
      vertex 12.458034515380859 47.169662475585938 -0.94811123609542847
      vertex 60.997245788574219 47.169662475585938 -2.0466020107269287
    endloop
  endfacet
  facet normal 0 1 -0
    outer loop
      vertex -73.620399475097656 47.169662475585938 -20.948110580444336
      vertex 12.458034515380859 47.169662475585938 -0.94811123609542847
      vertex 12.755309104919434 47.169662475585938 -40.568401336669922
    endloop
  endfacet
  facet normal -0.47224555862755851 -0 0.8814670341859332
    outer loop
      vertex -36.289524078369141 -47.993247985839844 -0.94811123609542847
      vertex -36.289524078369141 47.169662475585938 -0.94811123609542847
      vertex -73.620399475097656 47.169662475585938 -20.948110580444336
    endloop
  endfacet
  facet normal -0.47224555862755851 0 0.8814670341859332
    outer loop
      vertex -36.289524078369141 -47.993247985839844 -0.94811123609542847
      vertex -73.620399475097656 47.169662475585938 -20.948110580444336
      vertex -73.620399475097656 -47.993247985839844 -20.948110580444336
    endloop
  endfacet
  facet normal 0.022625204472596784 -0 0.99974401729771467
    outer loop
      vertex 60.997245788574219 -47.993247985839844 -2.0466020107269287
      vertex 60.997245788574219 47.169662475585938 -2.0466020107269287
      vertex 12.458034515380859 47.169662475585938 -0.94811123609542847
    endloop
  endfacet
  facet normal 0.022625204472596784 0 0.99974401729771467
    outer loop
      vertex 60.997245788574219 -47.993247985839844 -2.0466020107269287
      vertex 12.458034515380859 47.169662475585938 -0.94811123609542847
      vertex 12.458034515380859 -47.993247985839844 -0.94811123609542847
    endloop
  endfacet
  facet normal -0 -0 1
    outer loop
      vertex 12.458034515380859 -47.993247985839844 -0.94811123609542847
      vertex 12.458034515380859 47.169662475585938 -0.94811123609542847
      vertex -36.289524078369141 47.169662475585938 -0.94811123609542847
    endloop
  endfacet
  facet normal -0 -0 1
    outer loop
      vertex 12.458034515380859 -47.993247985839844 -0.94811123609542847
      vertex -36.289524078369141 47.169662475585938 -0.94811123609542847
      vertex -36.289524078369141 -47.993247985839844 -0.94811123609542847
    endloop
  endfacet
  facet normal 0.99999992141108085 0 0.00039645659571036965
    outer loop
      vertex 60.997245788574219 47.169662475585938 -2.0466020107269287
      vertex 60.997245788574219 -47.993247985839844 -2.0466020107269287
      vertex 61.012088775634766 -47.993247985839844 -39.485721588134766
    endloop
  endfacet
  facet normal 0.99999992141108085 0 0.00039645659571036965
    outer loop
      vertex 60.997245788574219 47.169662475585938 -2.0466020107269287
      vertex 61.012088775634766 -47.993247985839844 -39.485721588134766
      vertex 61.012088775634766 47.169662475585938 -39.485721588134766
    endloop
  endfacet
  facet normal 0.022430161461081396 0 -0.99974841228022449
    outer loop
      vertex 12.755309104919434 -47.993247985839844 -40.568401336669922
      vertex 12.755309104919434 47.169662475585938 -40.568401336669922
      vertex 61.012088775634766 47.169662475585938 -39.485721588134766
    endloop
  endfacet
  facet normal 0.022430161461081396 0 -0.99974841228022449
    outer loop
      vertex 12.755309104919434 -47.993247985839844 -40.568401336669922
      vertex 61.012088775634766 47.169662475585938 -39.485721588134766
      vertex 61.012088775634766 -47.993247985839844 -39.485721588134766
    endloop
  endfacet
  facet normal -0.46234764740852619 0 -0.88669873854415815
    outer loop
      vertex -73.620399475097656 -47.993247985839844 -20.948110580444336
      vertex -73.620399475097656 47.169662475585938 -20.948110580444336
      vertex -35.99224853515625 47.169662475585938 -40.568401336669922
    endloop
  endfacet
  facet normal -0.46234764740852619 -0 -0.88669873854415815
    outer loop
      vertex -73.620399475097656 -47.993247985839844 -20.948110580444336
      vertex -35.99224853515625 47.169662475585938 -40.568401336669922
      vertex -35.99224853515625 -47.993247985839844 -40.568401336669922
    endloop
  endfacet
  facet normal -0 0 -1
    outer loop
      vertex -35.99224853515625 -47.993247985839844 -40.568401336669922
      vertex -35.99224853515625 47.169662475585938 -40.568401336669922
      vertex 12.755309104919434 47.169662475585938 -40.568401336669922
    endloop
  endfacet
  facet normal -0 0 -1
    outer loop
      vertex -35.99224853515625 -47.993247985839844 -40.568401336669922
      vertex 12.755309104919434 47.169662475585938 -40.568401336669922
      vertex 12.755309104919434 -47.993247985839844 -40.568401336669922
    endloop
  endfacet
  facet normal 0 -1 0
    outer loop
      vertex 12.458034515380859 -47.993247985839844 -0.94811123609542847
      vertex -36.289524078369141 -47.993247985839844 -0.94811123609542847
      vertex -73.620399475097656 -47.993247985839844 -20.948110580444336
    endloop
  endfacet
  facet normal -0 -1 -0
    outer loop
      vertex -35.99224853515625 -47.993247985839844 -40.568401336669922
      vertex 12.755309104919434 -47.993247985839844 -40.568401336669922
      vertex -73.620399475097656 -47.993247985839844 -20.948110580444336
    endloop
  endfacet
  facet normal 0 -1 0
    outer loop
      vertex 60.997245788574219 -47.993247985839844 -2.0466020107269287
      vertex 12.755309104919434 -47.993247985839844 -40.568401336669922
      vertex 61.012088775634766 -47.993247985839844 -39.485721588134766
    endloop
  endfacet
  facet normal -0 -1 -0
    outer loop
      vertex 12.755309104919434 -47.993247985839844 -40.568401336669922
      vertex 60.997245788574219 -47.993247985839844 -2.0466020107269287
      vertex 12.458034515380859 -47.993247985839844 -0.94811123609542847
    endloop
  endfacet
  facet normal 0 -1 -0
    outer loop
      vertex -73.620399475097656 -47.993247985839844 -20.948110580444336
      vertex 12.755309104919434 -47.993247985839844 -40.568401336669922
      vertex 12.458034515380859 -47.993247985839844 -0.94811123609542847
    endloop
  endfacet
endsolid OBJECT
